<?xml version="1.0" encoding="utf-8"?>
<!-- Generator: Adobe Illustrator 19.2.1, SVG Export Plug-In . SVG Version: 6.00 Build 0)  -->
<svg version="1.1" id="Capa_1" xmlns="http://www.w3.org/2000/svg" xmlns:xlink="http://www.w3.org/1999/xlink" x="0px" y="0px"
	 viewBox="0 0 2786.1 2029.3" style="enable-background:new 0 0 2786.1 2029.3;" xml:space="preserve">
<style type="text/css">
	.st0{fill:#FFFFFF;}
</style>
<path class="st0" d="M2480.6,1269.1l305.5-444.5h-395.6l0,0C2301.3,355.2,1888.5,0,1392.6,0s-907.8,354.4-997,824.6l0,0H0
	l305.5,444.5l-72.1,120.1h133.9l-110.7,230h193.9v329.4l282.3-163c177.6,151.9,407.6,243.7,659.8,243.7s482.2-91.8,659.8-243.7
	l282.3,163v-329.5h193.9l-110.7-230h135.6L2480.6,1269.1z M922.4,824.6V574.9l93.5,62.6V513.1l93.5,62.6V385.3L1305,515.7
	c28.3-5.1,57.5-7.7,87.5-7.7c212.8,0,395.6,131.3,471.1,317.5L922.4,824.6L922.4,824.6z"/>
</svg>
