<?xml version="1.0" encoding="utf-8"?>
<!-- Generator: Adobe Illustrator 19.2.1, SVG Export Plug-In . SVG Version: 6.00 Build 0)  -->
<svg version="1.1" id="Capa_1" xmlns="http://www.w3.org/2000/svg" xmlns:xlink="http://www.w3.org/1999/xlink" x="0px" y="0px"
	 viewBox="0 0 747.8 105.6" style="enable-background:new 0 0 747.8 105.6;" xml:space="preserve">
<style type="text/css">
	.st0{fill:none;}
	.st1{fill:#FFFFFF;}
	.st2{fill:#B7CDED;}
</style>
<path class="st0" d="M69.9,29.3c-1.5,0-3,0.1-4.4,0.4l-9.8-6.5v9.6L51,29.7v6.2l-4.7-3.1v12.5h47.2C89.7,35.9,80.5,29.3,69.9,29.3z"
	/>
<path class="st1" d="M124.5,43c-4.7-24.5-26.2-43-52-43S25.1,18.5,20.6,43H0l15.9,23.2l-3.7,6.2h7l-5.8,11.9h10.1v17.1l14.7-8.5
	c9.2,7.9,21.3,12.7,34.4,12.7s25.1-4.8,34.4-12.7l14.7,8.5V84.3h10.1l-5.8-11.9h7.1l-3.8-6.2L145,43H124.5z M48.1,43V30l4.9,3.2
	v-6.4l4.9,3.2V20L68,26.8c1.5-0.3,3-0.4,4.6-0.4c11.1,0,20.6,6.9,24.5,16.5L48.1,43z"/>
<g>
	<polygon class="st1" points="188,38.5 171.4,38.5 171.4,10 162.8,10 162.8,46.1 188,46.1 	"/>
	<rect x="191.1" y="37.4" class="st1" width="8.9" height="8.7"/>
	<rect x="204.5" y="10" class="st1" width="8.6" height="36.2"/>
	<rect x="217.4" y="37.4" class="st1" width="8.9" height="8.7"/>
	<path class="st1" d="M285.7,23.3c0-7.1-2-12.7-6-16.8c-4-4-9.8-6.1-17.3-6.1h-18.7v45.7h18.7c7.5,0,13.3-2,17.3-6.1
		C283.7,36,285.7,30.4,285.7,23.3z M271.3,33.5c-2.1,2.3-5.1,3.4-9.1,3.4h-7.7V9.6h7.7c3.9,0,7,1.1,9.1,3.4
		c2.1,2.3,3.2,5.7,3.2,10.2C274.4,27.8,273.4,31.2,271.3,33.5z"/>
	<path class="st1" d="M320.3,22.5c0-6.8-4.9-10.2-14.8-10.2c-10,0-15.3,3.8-15.9,11.5h9.9c0.2-1.7,0.7-2.8,1.5-3.4
		c0.8-0.6,2.3-0.9,4.3-0.9c3.4,0,5.1,1.1,5.1,3.3c0,1.9-1.4,3-4.3,3.3l-5.2,0.4c-8.6,0.7-13,4.2-13,10.3c0,3.2,1.1,5.6,3.3,7.4
		c2.2,1.8,5.1,2.7,8.8,2.7c4.8,0,8.4-1.5,10.6-4.5c0,1.5,0.3,2.7,0.8,3.7h10.1c-0.9-1.3-1.3-3.3-1.3-6.1V22.5z M310.5,33.1
		c0,2.4-0.7,4.1-2,5.3c-1.3,1.2-3.1,1.8-5.4,1.8c-1.5,0-2.7-0.3-3.6-1c-0.9-0.7-1.3-1.6-1.3-2.8c0-2.3,1.6-3.6,4.8-4l4.1-0.5
		c1.6-0.2,2.7-0.6,3.3-1.3V33.1z"/>
	<path class="st1" d="M347.2,26.4v19.7h10V24.5c0-3.9-1-6.9-3.1-9c-2.1-2.1-4.9-3.2-8.4-3.2c-4.4,0-7.8,1.8-10.4,5.5V13h-9.8v33.1
		h10V27.7c0-2.2,0.6-3.9,1.8-5.1s2.7-1.8,4.5-1.8C345.5,20.8,347.2,22.7,347.2,26.4z"/>
	<rect x="363.3" y="0.8" class="st1" width="9.6" height="8.5"/>
	<rect x="363" y="13" class="st1" width="10" height="33.1"/>
	<path class="st1" d="M394.7,46.9c4.1,0,7.6-1,10.5-3c2.9-2,4.8-4.7,5.7-8.1h-9.5c-1.2,2.5-3.4,3.7-6.7,3.7c-2.1,0-3.7-0.6-5.1-1.8
		c-1.3-1.2-2.2-2.9-2.5-5.2h24.5v-2c0-5.6-1.5-10-4.6-13.3c-3.2-3.3-7.3-4.9-12.4-4.9c-5.2,0-9.3,1.6-12.4,4.7
		c-3.1,3.1-4.7,7.3-4.7,12.6c0,5.2,1.6,9.4,4.7,12.6C385.4,45.3,389.6,46.9,394.7,46.9z M394.4,19.6c2,0,3.7,0.6,4.9,1.7
		c1.3,1.2,2.1,2.8,2.4,4.8h-14.6C387.9,21.8,390.3,19.6,394.4,19.6z"/>
	<rect x="416.3" y="0.5" class="st1" width="10" height="45.7"/>
	<path class="st1" d="M485.3,41.2l-0.3-6.4c-0.1-2.9-0.7-5.2-1.6-6.7c-0.9-1.6-2.6-2.8-4.9-3.5c4.9-2,7.4-5.6,7.4-10.8
		c0-4.1-1.4-7.3-4.3-9.7c-2.8-2.4-6.9-3.6-12.3-3.6h-21.6v45.7h10.8V29.3h8.9c2.3,0,4,0.5,5,1.4c1,1,1.6,2.7,1.7,5.2l0.2,5.1
		c0,2.1,0.4,3.7,1.1,5h11.2C485.7,44.9,485.3,43.3,485.3,41.2z M473,19.6c-1.2,1-2.8,1.6-4.9,1.6h-9.6V9.1h9.4c4.5,0,6.8,2,6.8,6
		C474.7,17,474.1,18.6,473,19.6z"/>
	<path class="st1" d="M506.7,12.3c-5.3,0-9.5,1.6-12.6,4.7c-3.2,3.2-4.7,7.4-4.7,12.6c0,5.2,1.6,9.4,4.7,12.6
		c3.2,3.2,7.4,4.7,12.6,4.7c5.3,0,9.5-1.6,12.6-4.7c3.1-3.1,4.7-7.3,4.7-12.6c0-5.3-1.6-9.5-4.7-12.6
		C516.2,13.8,512,12.3,506.7,12.3z M512,36.5c-1.2,1.6-3,2.4-5.3,2.4c-2.4,0-4.1-0.8-5.4-2.4c-1.2-1.6-1.9-3.9-1.9-6.9
		c0-3,0.6-5.3,1.9-6.9c1.2-1.6,3-2.4,5.4-2.4c2.3,0,4.1,0.8,5.3,2.4c1.2,1.6,1.9,3.9,1.9,6.9C513.9,32.6,513.3,34.9,512,36.5z"/>
	<path class="st1" d="M551.2,17c-2.3-3.2-5.5-4.7-9.7-4.7c-4.4,0-8,1.6-10.5,4.7c-2.6,3.1-3.9,7.3-3.9,12.6c0,5.3,1.3,9.5,3.9,12.6
		c2.6,3.1,6.1,4.7,10.5,4.7c4.4,0,7.7-1.7,9.9-5.1v4.3h9.8V0.5h-10V17z M544.3,38.9c-4.7,0-7.1-3-7.1-9c0-3.1,0.6-5.4,1.9-7.1
		c1.2-1.6,3-2.5,5.2-2.5c4.7,0,7.1,3.1,7.1,9.3C551.4,35.8,549,38.9,544.3,38.9z"/>
	<path class="st1" d="M576.7,19.2V13H567v33.1h10V30.7c0-6,2.9-9,8.8-9h2.6v-9.1c-1.3-0.1-2-0.1-2.2-0.1
		C581.4,12.5,578.3,14.7,576.7,19.2z"/>
	<rect x="592.4" y="13" class="st1" width="10" height="33.1"/>
	<polygon class="st1" points="607.1,0 597.1,0 593.9,9.2 601,9.2 	"/>
	<path class="st1" d="M631.3,17.4c-2.2-3.4-5.5-5.1-9.9-5.1c-4.3,0-7.8,1.5-10.5,4.6c-2.7,3.1-4,7.1-4,12c0,4.9,1.3,8.9,4,12
		c2.7,3.1,6.2,4.6,10.6,4.6c4.2,0,7.4-1.6,9.5-4.7v4.7c0,2.1-0.6,3.6-1.7,4.8c-1.2,1.1-2.8,1.7-5,1.7c-4,0-6.1-1.5-6.4-4.6H608
		c0.2,3.8,1.7,6.7,4.5,8.9c2.8,2.2,6.6,3.2,11.5,3.2c5.3,0,9.5-1.3,12.5-3.8s4.5-6.1,4.5-10.6V13h-9.8V17.4z M629.3,35.2
		c-1.2,1.5-3,2.2-5.3,2.2c-2.2,0-4-0.7-5.2-2.2c-1.2-1.5-1.9-3.6-1.9-6.3c0-2.7,0.6-4.9,1.9-6.4c1.2-1.5,3-2.3,5.2-2.3
		c2.3,0,4.1,0.7,5.3,2.2c1.2,1.5,1.8,3.6,1.8,6.4C631.2,31.6,630.6,33.7,629.3,35.2z"/>
	<path class="st1" d="M668.4,31.5c0,2.2-0.6,3.9-1.8,5.1c-1.2,1.2-2.7,1.8-4.5,1.8c-3.6,0-5.3-1.9-5.3-5.6V13h-10v21.7
		c0,3.9,1,6.9,3.1,9c2.1,2.1,4.9,3.2,8.4,3.2c4.4,0,7.8-1.8,10.4-5.5v4.7h9.8V13h-10V31.5z"/>
	<path class="st1" d="M699.9,12.3c-5.2,0-9.3,1.6-12.4,4.7c-3.1,3.1-4.7,7.3-4.7,12.6c0,5.2,1.6,9.4,4.7,12.6
		c3.2,3.2,7.3,4.7,12.4,4.7c4.1,0,7.6-1,10.5-3c2.9-2,4.8-4.7,5.7-8.1h-9.5c-1.2,2.5-3.4,3.7-6.7,3.7c-2.1,0-3.7-0.6-5.1-1.8
		c-1.3-1.2-2.2-2.9-2.5-5.2H717v-2c0-5.6-1.5-10-4.6-13.3C709.2,13.9,705,12.3,699.9,12.3z M692.5,26.2c0.7-4.4,3.1-6.5,7.3-6.5
		c2,0,3.7,0.6,4.9,1.7c1.3,1.2,2.1,2.8,2.4,4.8H692.5z"/>
	<path class="st1" d="M737.9,38.7c-3.5,0-5.7,0-6.7,0.1c1.2-1.5,2.6-3.1,4.1-4.9l11.7-14.5V13h-28.2v7.4h9c3.5,0,5.7,0,6.7-0.1
		c-1.2,1.5-2.6,3.1-4.1,4.9l-11.7,14.5v6.3h29v-7.4H737.9z"/>
	<g>
		<path class="st2" d="M174.7,61.1c5.4,0,9.6,1.5,12.7,4.6c3,3.1,4.5,7.3,4.5,12.8c0,5.4-1.5,9.7-4.5,12.8
			c-3.1,3.1-7.3,4.6-12.7,4.6h-12.4V61.1H174.7z M174.6,91.3c3.8,0,6.7-1.1,8.8-3.3c2-2.2,3.1-5.4,3.1-9.5c0-4.1-1-7.3-3.1-9.5
			c-2-2.2-5-3.3-8.8-3.3h-7.1v25.6H174.6z"/>
		<path class="st2" d="M194.7,67.1v-5.2h5v5.2H194.7z M194.7,95.9V70.7h4.9v25.2H194.7z"/>
		<path class="st2" d="M201.9,87.9h4.9c0.2,1.8,0.8,3,1.7,3.7c0.9,0.7,2.4,1.1,4.5,1.1c3.7,0,5.6-1.2,5.6-3.5c0-1-0.4-1.8-1.2-2.3
			c-0.8-0.6-2.2-1-4.2-1.4l-2.6-0.5c-5.3-1-8-3.5-8-7.5c0-2.2,0.9-4,2.6-5.4c1.7-1.3,4.1-2,7.1-2c6.9,0,10.5,2.8,10.7,8.5h-4.7
			c-0.1-1.7-0.6-2.9-1.6-3.6c-0.9-0.7-2.4-1-4.4-1c-1.6,0-2.8,0.3-3.6,0.9c-0.8,0.6-1.3,1.4-1.3,2.5c0,1,0.4,1.7,1.1,2.3
			c0.8,0.5,1.9,1,3.6,1.3l2.6,0.4c3.1,0.6,5.3,1.5,6.7,2.6c1.4,1.2,2.1,2.8,2.1,4.9c0,2.4-0.9,4.3-2.8,5.7c-1.9,1.4-4.4,2-7.8,2
			C206,96.5,202.3,93.6,201.9,87.9z"/>
		<path class="st2" d="M248.4,84.9h-19c0.2,2.5,1,4.3,2.2,5.6c1.2,1.3,2.9,1.9,5,1.9c3.2,0,5.3-1.4,6.3-4.2h4.9
			c-0.7,2.6-2,4.6-4,6.1c-2,1.5-4.4,2.2-7.3,2.2c-3.6,0-6.5-1.2-8.7-3.6c-2.2-2.4-3.3-5.6-3.3-9.6c0-4,1.1-7.2,3.3-9.6
			c2.2-2.4,5.1-3.6,8.6-3.6c3.7,0,6.6,1.3,8.8,3.8c2.1,2.5,3.2,5.7,3.2,9.6V84.9z M231.7,75.9c-1.2,1.2-2,2.9-2.3,5.1h13.9
			c-0.2-2.1-1-3.7-2.2-5c-1.2-1.3-2.8-1.9-4.8-1.9C234.5,74.2,233,74.8,231.7,75.9z"/>
		<path class="st2" d="M270.4,72.4c1.6,1.5,2.3,3.7,2.3,6.6v16.9h-4.9V79.7c0-3.5-1.8-5.3-5.3-5.3c-1.6,0-3.1,0.6-4.4,1.9
			c-1.3,1.3-2,3.1-2,5.4v14.2h-4.9V70.7h4.7v3.8c1.9-2.9,4.6-4.3,7.9-4.3C266.7,70.1,268.9,70.9,270.4,72.4z M257.3,67.1h-3.7
			c0-4.1,1.5-6.2,4.6-6.2c1,0,2.5,0.4,4.3,1.3c1.4,0.7,2.4,1,3,1c0.9,0,1.4-0.7,1.4-2.2h3.7c0,4.1-1.5,6.2-4.6,6.2
			c-1,0-2.4-0.4-4.4-1.3c-1.3-0.6-2.3-0.9-2.9-0.9C257.7,64.8,257.3,65.6,257.3,67.1z"/>
		<path class="st2" d="M288.2,96.5c-3.7,0-6.7-1.2-9-3.6c-2.3-2.4-3.5-5.6-3.5-9.6c0-4,1.2-7.2,3.5-9.6c2.3-2.4,5.3-3.6,9-3.6
			s6.8,1.2,9,3.6c2.3,2.4,3.4,5.6,3.4,9.6c0,4-1.1,7.2-3.4,9.6C294.9,95.3,291.9,96.5,288.2,96.5z M293.6,89.9c1.3-1.6,2-3.8,2-6.6
			c0-2.8-0.7-5-2-6.6c-1.3-1.6-3.1-2.4-5.4-2.4s-4.1,0.8-5.4,2.4s-2,3.8-2,6.6c0,2.8,0.7,5,2,6.6s3.1,2.4,5.4,2.4
			S292.2,91.5,293.6,89.9z"/>
		<path class="st2" d="M328.3,77.6h15.1v18.3h-4l-0.9-4.6c-2.6,3.6-6.4,5.4-11.3,5.4c-5,0-9-1.7-12-5c-3-3.3-4.5-7.7-4.5-13.1
			c0-5.5,1.5-9.9,4.6-13.2c3-3.3,7.1-5,12.2-5c4.3,0,7.8,1.1,10.6,3.3c2.8,2.2,4.4,5.2,5,8.9h-5.4c-0.5-2.3-1.7-4.2-3.5-5.6
			c-1.8-1.4-4.1-2.1-6.7-2.1c-3.5,0-6.3,1.2-8.3,3.7c-2.1,2.4-3.1,5.7-3.1,9.9c0,4.2,1,7.5,3.1,9.9c2.1,2.4,4.9,3.7,8.4,3.7
			c3,0,5.6-0.9,7.7-2.8c2.1-1.9,3.2-4.2,3.3-7.1h-10.3V77.6z"/>
		<path class="st2" d="M361.4,70.3V75h-1.2c-2.5,0-4.4,0.6-5.8,1.9c-1.4,1.2-2.1,3-2.1,5.4v13.7h-4.9V70.7h4.7v4.5
			c1.6-3.3,4.2-4.9,7.9-4.9C360.7,70.3,361.2,70.3,361.4,70.3z"/>
		<path class="st2" d="M384.9,92.1v3.8c-0.7,0.1-1.5,0.1-2.4,0.1c-1.6,0-2.7-0.3-3.5-0.9c-0.8-0.6-1.2-1.5-1.4-2.7
			c-1.7,2.7-4.4,4-8.2,4c-2.8,0-5-0.7-6.6-2c-1.6-1.3-2.4-3.2-2.4-5.5c0-4.6,3.2-7.2,9.5-7.8l3.7-0.4c1.3-0.2,2.3-0.5,2.9-1
			c0.6-0.5,0.9-1.2,0.9-2.2c0-1.3-0.4-2.2-1.2-2.8c-0.8-0.6-2.1-0.9-4-0.9c-2,0-3.5,0.3-4.3,1c-0.9,0.7-1.4,1.8-1.5,3.5h-4.8
			c0.4-5.6,3.9-8.5,10.7-8.5c6.6,0,10,2.5,10,7.4v13.3c0,0.8,0.5,1.3,1.4,1.3H384.9z M375.4,90.9c1.4-1.2,2.1-2.8,2.1-5v-2.6
			c-0.6,0.5-1.7,0.9-3.1,1l-3.5,0.4c-1.9,0.2-3.2,0.7-4.1,1.3c-0.8,0.7-1.2,1.6-1.2,2.8c0,1.2,0.4,2.1,1.2,2.8c0.8,0.7,2,1,3.5,1
			C372.3,92.7,374,92.1,375.4,90.9z M380.6,60.1l-6.2,7h-4.2l4.3-7H380.6z"/>
		<path class="st2" d="M387.8,68.4c0-5,2.5-7.4,7.6-7.4c0.5,0,1.4,0,2.8,0.1v4H396c-2.2,0-3.3,1.1-3.3,3.3v2.3h5.3v4h-5.3v21.2h-4.9
			V74.7h-4.1v-4h4.1V68.4z M401.7,61.9h5v5.2h-5V61.9z M401.7,95.9V70.7h4.9v25.2H401.7z"/>
		<path class="st2" d="M412.8,92.8c-2.2-2.4-3.3-5.6-3.3-9.6c0-4,1.1-7.2,3.3-9.6c2.2-2.4,5.1-3.6,8.7-3.6c3.1,0,5.6,0.8,7.6,2.5
			c2,1.7,3.2,4,3.6,6.8h-5c-0.3-1.7-1.1-2.9-2.2-3.8s-2.5-1.3-4.1-1.3c-2.1,0-3.8,0.8-5.1,2.3c-1.3,1.5-1.9,3.8-1.9,6.6
			s0.6,5.1,1.9,6.6c1.3,1.5,2.9,2.3,5.1,2.3c1.6,0,3-0.5,4.2-1.4c1.1-0.9,1.9-2.2,2.1-4h5c-0.4,2.9-1.6,5.3-3.7,7
			c-2.1,1.7-4.6,2.6-7.6,2.6C417.9,96.5,415,95.3,412.8,92.8z"/>
		<path class="st2" d="M446.5,96.5c-3.7,0-6.7-1.2-9-3.6c-2.3-2.4-3.5-5.6-3.5-9.6c0-4,1.2-7.2,3.5-9.6c2.3-2.4,5.3-3.6,9-3.6
			s6.8,1.2,9,3.6c2.3,2.4,3.4,5.6,3.4,9.6c0,4-1.1,7.2-3.4,9.6C453.2,95.3,450.2,96.5,446.5,96.5z M451.9,89.9c1.3-1.6,2-3.8,2-6.6
			c0-2.8-0.7-5-2-6.6c-1.3-1.6-3.1-2.4-5.4-2.4s-4.1,0.8-5.4,2.4c-1.3,1.6-2,3.8-2,6.6c0,2.8,0.7,5,2,6.6c1.3,1.6,3.1,2.4,5.4,2.4
			S450.6,91.5,451.9,89.9z"/>
		<path class="st2" d="M486.4,70.7h5.2l-10.3,28.4c-0.8,2.4-2,4.1-3.4,5.1c-1.4,1-3.4,1.5-6,1.5c-0.9,0-1.7,0-2.5-0.1v-4h2.4
			c2.2,0,3.7-1,4.4-3c0.1-0.2,0.2-0.5,0.3-0.9c0.1-0.4,0.3-0.7,0.4-1l-9.3-25.9h5.3l2.9,8.6c1.6,4.8,2.8,8.8,3.8,12.1
			c1.3-4.1,2.5-8.2,3.8-12.1L486.4,70.7z"/>
		<path class="st2" d="M540,61.1h5.4l-9.8,34.8h-5.9l-4.4-16.3c-0.8-3.2-1.9-7.2-3-12.1c-1.2,4.9-2.2,8.9-3,12.1l-4.4,16.3H509
			l-9.8-34.8h5.4l4.3,15.8c1.5,5.7,2.5,10,3.2,12.9c1.9-7.8,2.9-12.1,3.2-12.9l4.2-15.7h5.6l4.2,15.7c0.2,0.9,1.3,5.2,3.2,12.9
			c0.7-2.9,1.8-7.2,3.2-12.9L540,61.1z"/>
		<path class="st2" d="M566.9,84.9h-19c0.2,2.5,1,4.3,2.2,5.6c1.2,1.3,2.9,1.9,5,1.9c3.2,0,5.3-1.4,6.3-4.2h4.9
			c-0.7,2.6-2,4.6-4,6.1c-2,1.5-4.4,2.2-7.3,2.2c-3.6,0-6.5-1.2-8.7-3.6c-2.2-2.4-3.3-5.6-3.3-9.6c0-4,1.1-7.2,3.3-9.6
			c2.2-2.4,5.1-3.6,8.6-3.6c3.7,0,6.6,1.3,8.8,3.8c2.1,2.5,3.2,5.7,3.2,9.6V84.9z M550.2,75.9c-1.2,1.2-2,2.9-2.3,5.1h13.9
			c-0.2-2.1-1-3.7-2.2-5c-1.2-1.3-2.8-1.9-4.8-1.9C553,74.2,551.4,74.8,550.2,75.9z"/>
		<path class="st2" d="M591.3,73.6c2.1,2.4,3.1,5.6,3.1,9.6c0,4-1,7.2-3.1,9.6c-2.1,2.4-4.9,3.6-8.4,3.6c-3.7,0-6.5-1.5-8.4-4.4v3.8
			h-4.7V61.1h4.9v13.1c1.9-2.7,4.6-4.1,8.2-4.1C586.4,70.1,589.2,71.3,591.3,73.6z M581.9,92.3c2.3,0,4.1-0.8,5.4-2.4
			c1.3-1.6,2-3.8,2-6.7c0-2.8-0.7-5-2-6.5c-1.3-1.5-3.1-2.3-5.4-2.3c-2.2,0-4,0.8-5.4,2.3c-1.3,1.6-2,3.8-2,6.6c0,2.8,0.7,5,2,6.6
			C577.9,91.5,579.7,92.3,581.9,92.3z"/>
	</g>
</g>
</svg>
